PathFileType	4	(X/Y/Z)	C:\Users\Basilio\Documents\Thesis Gigler\squatting_fais\c3dfiles\038\SJ_pre2\markers_experimental.trc
DataRate	CameraRate	NumFrames	NumMarkers	Units	OrigDataRate	OrigDataStartFrame	OrigNumFrames
200.000000	200.000000	4	61	mm	200.000000	695	1854
Frame#	Time	FHD			LBHD			RBHD			C7			T10			LSHO			LUUPA			LMUPA			LDUPA			LLEP			LMEP			LRAD			LUL			LRFIN			RSHO			RUPA1			RMUPA			RDUPA			RLEP			RMEP			RRAD			RUL			RUFIN			LASI			RASI			USACR			LSACR			RSACR			LTHI1			LTHI2			LTHI3			LTHI4			LLFC			LMFC			LTIB1			LTIB2			LTIB3			LTIB4			LLMAL			LMMAL			LHEE			LMT1			LMT2			LMT5			RTHI			RTHI2			RTHI3			RTHI4			RLFC			RMFC			RTIB1			RTIB2			RTIB3			RTIB4			RLMAL			RMMAL			RHEE			RMT1			RMT2			RMT5			CLAV			
		X1	Y1	Z1	X2	Y2	Z2	X3	Y3	Z3	X4	Y4	Z4	X5	Y5	Z5	X6	Y6	Z6	X7	Y7	Z7	X8	Y8	Z8	X9	Y9	Z9	X10	Y10	Z10	X11	Y11	Z11	X12	Y12	Z12	X13	Y13	Z13	X14	Y14	Z14	X15	Y15	Z15	X16	Y16	Z16	X17	Y17	Z17	X18	Y18	Z18	X19	Y19	Z19	X20	Y20	Z20	X21	Y21	Z21	X22	Y22	Z22	X23	Y23	Z23	X24	Y24	Z24	X25	Y25	Z25	X26	Y26	Z26	X27	Y27	Z27	X28	Y28	Z28	X29	Y29	Z29	X30	Y30	Z30	X31	Y31	Z31	X32	Y32	Z32	X33	Y33	Z33	X34	Y34	Z34	X35	Y35	Z35	X36	Y36	Z36	X37	Y37	Z37	X38	Y38	Z38	X39	Y39	Z39	X40	Y40	Z40	X41	Y41	Z41	X42	Y42	Z42	X43	Y43	Z43	X44	Y44	Z44	X45	Y45	Z45	X46	Y46	Z46	X47	Y47	Z47	X48	Y48	Z48	X49	Y49	Z49	X50	Y50	Z50	X51	Y51	Z51	X52	Y52	Z52	X53	Y53	Z53	X54	Y54	Z54	X55	Y55	Z55	X56	Y56	Z56	X57	Y57	Z57	X58	Y58	Z58	X59	Y59	Z59	X60	Y60	Z60	X61	Y61	Z61	

696	3.475	-160.7415313720703	1479.52978515625	-926.8240356445315	-297.9305419921876	1389.427368164063	-988.3320922851565	-287.9381408691407	1380.447021484375	-842.4292602539065	-329.0419006347657	1271.49609375	-911.1457519531252	-476.5566406250001	1035.020263671875	-896.1791992187502	-231.0793914794922	1234.946044921875	-1084.908203125	-297.9955139160157	1102.873657226563	-1273.61767578125	-278.2917785644532	1058.1376953125	-1257.592407226563	-304.1550292968751	1041.74365234375	-1308.355102539063	-318.7058105468751	980.139587402344	-1327.216674804688	-400.872039794922	994.955993652344	-1330.566528320313	-462.2168273925782	809.2263183593752	-1129.091064453125	-415.4723205566407	762.2471313476564	-1155.967041015625	-446.2975158691407	803.7095336914065	-1059.925170898438	-213.0964355468751	1225.9677734375	-760.2254638671876	-247.8904724121094	1095.831176757813	-579.5327148437501	-250.7813568115235	1048.20654296875	-589.3613281250001	-266.1996459960938	1047.8408203125	-532.2269897460939	-287.3756103515626	982.5750122070315	-498.333221435547	-367.2587585449219	1004.466613769531	-484.6513671875001	-427.0536499023439	799.5677490234377	-656.0690307617189	-375.6704711914063	755.9183349609376	-634.6200561523439	-407.0887756347657	791.2894287109377	-721.6342773437501	-432.9036865234376	800.2793579101565	-1012.232971191406	-412.5202941894532	812.320007324219	-766.0125732421876	-565.3314819335939	909.700134277344	-880.8323364257815	-592.8146362304689	886.3862915039065	-906.1811523437502	-584.8978271484376	887.023132324219	-849.0261230468752	-382.8674621582032	626.1478881835939	-1163.404418945313	-309.5406799316407	589.3499145507814	-1192.910766601563	-272.9237365722657	615.0578613281251	-1173.30224609375	-299.1790466308594	528.7883911132814	-1195.761352539063	-267.7760925292969	481.2222290039064	-1199.5849609375	-233.1013488769532	468.2661132812501	-1098.870971679688	-258.2391357421876	295.6915283203126	-1132.518188476563	-327.2016601562501	269.6566162109376	-1183.069580078125	-291.4786682128907	255.8705139160157	-1160.11083984375	-321.2307434082032	185.9195709228516	-1120.296142578125	-442.3208312988282	81.37247467041017	-1120.517944335938	-392.4100036621095	97.92380523681643	-1053.855712890625	-485.2393493652345	43.55317687988282	-1060.450561523438	-277.1726989746094	47.34873199462891	-1093.721923828125	-280.4637145996094	50.41641235351564	-1145.25341796875	-328.7538146972657	30.05966377258301	-1184.471435546875	-393.8922729492189	629.5116577148439	-656.2476196289064	-334.3435058593751	607.7052612304689	-635.9797363281251	-307.0328369140626	629.6165771484376	-635.1809082031251	-306.3598937988282	525.9447631835939	-641.6381225585939	-226.6571502685547	444.2971191406251	-632.5955200195314	-209.4591674804688	450.8190307617189	-740.0742187500001	-230.3200683593751	277.0371398925782	-675.0509643554689	-339.2476501464844	232.4422454833985	-659.5184326171876	-294.4164428710938	219.0407104492188	-667.2456665039064	-298.9268493652344	170.6199340820313	-701.8989868164064	-408.3240966796876	85.41294097900392	-696.3484497070314	-367.2545776367188	91.71495056152345	-771.214294433594	-463.3687133789064	40.34737396240235	-772.1000976562502	-252.3789367675782	49.28712844848634	-713.4962158203126	-265.4523620605469	53.46603775024415	-668.9853515625001	-316.6469726562501	33.53746414184571	-633.8934936523439	-212.1360778808594	1185.27197265625	-922.6472778320315	
697	3.48	-160.3755187988282	1477.71533203125	-926.4443969726565	-297.5909423828126	1387.557861328125	-988.3960571289065	-287.6057434082032	1378.812622070313	-842.321472167969	-328.5100402832032	1269.897094726563	-911.0366210937502	-476.3715820312501	1033.721313476563	-896.149597167969	-230.2716827392579	1233.149291992188	-1084.890258789063	-297.4032897949219	1101.204345703125	-1273.573974609375	-277.5096435546876	1056.425170898438	-1257.568359375	-303.7578125000001	1040.400634765625	-1308.199584960938	-318.2390136718751	978.6740722656252	-1327.086791992188	-400.3722534179689	993.8477783203127	-1330.781494140625	-462.5778808593751	808.4478759765627	-1129.1123046875	-415.767059326172	761.3803100585939	-1155.741088867188	-446.4591369628907	802.758483886719	-1059.77001953125	-212.4356384277344	1224.450439453125	-760.2141113281251	-247.4366912841797	1094.27490234375	-579.6420288085939	-250.6064758300782	1046.720703125	-589.0084838867189	-266.0335998535157	1046.584228515625	-531.8558959960939	-287.2788696289063	981.0892333984377	-498.2666931152345	-367.1780700683594	1003.489135742188	-484.4343872070314	-427.4600524902345	798.5694580078127	-656.0171508789064	-376.0904846191407	755.0275268554689	-634.7128906250001	-407.6407775878907	790.5740356445315	-721.5286865234376	-433.0819396972657	799.0651855468752	-1012.363891601563	-412.6778564453126	810.9674072265627	-765.9904174804689	-565.5627441406251	908.6451416015627	-880.820251464844	-592.9707641601564	885.4378662109377	-906.1942138671877	-585.2866210937501	886.010925292969	-849.1480102539065	-383.1807861328126	625.6715698242189	-1163.561889648438	-309.6412963867188	588.9433593750001	-1193.10009765625	-273.1537780761719	614.8309326171876	-1173.412963867188	-299.0980529785157	528.5522460937501	-1196.0478515625	-267.5623779296876	481.0119628906251	-1199.844360351563	-232.8203735351563	467.9859619140626	-1099.400146484375	-258.0948181152344	295.5901794433594	-1132.747924804688	-327.0344543457032	269.5228881835938	-1183.26904296875	-291.6617431640626	254.9397735595704	-1160.497924804688	-321.1772155761719	185.8746643066407	-1120.400512695313	-442.3932189941407	81.44686889648439	-1120.526733398438	-392.380340576172	97.8520431518555	-1053.885375976563	-485.2362060546876	43.54855346679688	-1060.501708984375	-277.1460266113282	47.36243438720704	-1093.7529296875	-280.5234375000001	50.35126113891603	-1145.24169921875	-328.7452087402344	30.06305122375489	-1184.483032226563	-394.0051574707032	628.8721923828126	-656.1364135742189	-334.3217163085938	607.2408447265626	-635.8270874023439	-307.2649230957032	629.0829467773439	-635.0863647460939	-306.2188415527344	525.4657592773439	-641.5138549804689	-226.4330291748047	444.0689392089845	-632.4039916992189	-209.2092285156251	450.6082763671876	-739.9074096679689	-230.1316070556641	276.8366699218751	-675.0214843750001	-339.0856018066407	232.2956695556641	-659.3500976562501	-294.2862854003907	218.9608612060547	-667.2218627929689	-298.8001708984376	170.4727630615235	-701.9140014648439	-408.3411254882814	85.41915893554689	-696.3886718750001	-367.2718505859376	91.74728393554689	-771.274597167969	-463.3961486816407	40.32567214965821	-772.1106567382815	-252.3612976074219	49.27243041992189	-713.4533081054689	-265.4237060546876	53.41427230834962	-668.9299316406251	-316.6450500488282	33.54551315307618	-633.8958129882814	-211.7959594726563	1183.856811523438	-922.496276855469	
698	3.485	-159.8667297363282	1476.348999023438	-926.6169433593752	-296.9840698242188	1386.269287109375	-988.3129882812502	-287.2107543945313	1377.320434570313	-842.3833618164065	-328.0916442871094	1268.358764648438	-911.023376464844	-476.2818908691407	1032.499267578125	-896.2089843750002	-229.4658813476563	1231.672485351563	-1084.804931640625	-296.6749267578126	1099.6845703125	-1273.56494140625	-277.0527954101563	1055.066162109375	-1257.4765625	-302.6960754394532	1038.702880859375	-1308.211059570313	-317.6352233886719	977.1968383789065	-1327.106567382813	-399.7780151367189	992.5957641601565	-1330.90576171875	-462.4773254394532	807.4442138671877	-1128.949096679688	-415.9785766601564	760.6513671875001	-1155.648071289063	-446.9320068359376	801.915466308594	-1059.661010742188	-211.9284057617188	1222.9189453125	-760.1926879882814	-247.1837921142579	1092.965698242188	-579.3975219726564	-250.2380065917969	1045.43994140625	-589.1635131835939	-265.7458801269532	1045.196044921875	-531.8701782226564	-287.1535034179688	979.920104980469	-498.0811767578126	-367.0704345703126	1002.113342285156	-484.2687377929689	-427.8098754882814	797.6187744140627	-655.9108886718751	-376.5626831054688	754.1167602539064	-634.5780639648439	-408.1734924316407	789.6116943359377	-721.3449707031251	-433.4524536132814	797.699401855469	-1012.202697753906	-413.0924377441407	809.872985839844	-765.8552246093751	-565.6976928710939	907.1145019531252	-880.7544555664065	-592.7117919921876	883.9099121093752	-906.0725708007815	-584.8385009765626	884.0947265625002	-848.751403808594	-383.4438171386719	625.2548828125001	-1163.7392578125	-309.6780090332032	588.5869140625001	-1193.37890625	-273.2861938476563	614.6191406250001	-1173.593994140625	-299.1046752929688	528.2211303710939	-1195.97119140625	-267.3864746093751	480.7890625000001	-1200.158325195313	-232.5360717773438	467.5044860839845	-1099.925537109375	-257.8844909667969	295.5271301269532	-1132.957763671875	-327.0803833007813	269.4386596679688	-1183.3916015625	-291.3681335449219	255.8909606933594	-1160.377685546875	-321.1670227050782	185.784164428711	-1120.512939453125	-442.4119567871095	81.45123291015626	-1120.553344726563	-392.3912353515626	97.89115905761722	-1053.884033203125	-485.2484436035157	43.55682754516602	-1060.4296875	-277.1337890625001	47.3728141784668	-1093.779052734375	-280.4376220703126	50.44539260864259	-1145.26318359375	-328.7716369628907	30.05374336242676	-1184.460083007813	-394.1755981445314	627.9953613281251	-655.9482421875001	-334.4827270507813	606.9479980468751	-635.5681152343751	-307.3212585449219	628.5842285156251	-634.9523315429689	-306.1306762695313	524.9737548828126	-641.3696899414064	-226.2727813720704	443.8062133789064	-632.1739501953126	-208.9570465087891	450.4055175781251	-739.7882690429689	-229.9334411621094	276.6552429199219	-674.9640502929689	-338.9446105957032	232.1946716308594	-659.3120117187501	-294.1080627441407	218.8451232910157	-667.2319946289064	-298.6640625000001	170.3435516357422	-701.9815063476564	-408.2929077148439	85.4014129638672	-696.4050292968751	-367.1796264648438	91.72779083251955	-771.2874755859377	-463.3249816894532	40.36655044555665	-772.1687011718752	-252.3882904052735	49.2236671447754	-713.5170898437501	-265.4594726562501	53.39500045776369	-668.9756469726564	-316.3605346679688	33.78544616699219	-633.6835327148439	-211.2423553466797	1181.99560546875	-922.4221801757815	
699	3.49	-159.3276519775391	1474.782348632813	-926.5224609375002	-296.5803527832032	1384.605834960938	-988.2595825195315	-286.6641540527344	1375.680908203125	-842.3521118164065	-327.6595764160157	1266.873413085938	-911.042663574219	-476.1311950683595	1031.294067382813	-896.2476196289065	-228.9288787841797	1230.008544921875	-1084.643432617188	-295.9243164062501	1098.270629882813	-1273.50439453125	-276.5794372558594	1052.991455078125	-1257.3974609375	-301.8646850585938	1037.550659179688	-1308.528076171875	-317.2620239257813	975.667907714844	-1327.093872070313	-399.1724548339845	991.3233642578127	-1331.10546875	-462.885955810547	806.6614379882815	-1128.911376953125	-416.3946533203126	759.5600585937501	-1155.505493164063	-447.4007873535157	800.9616699218752	-1059.552856445313	-211.4224395751954	1221.35888671875	-760.2232666015626	-246.7288513183594	1091.32861328125	-579.4552612304689	-249.9757232666016	1043.984252929688	-588.7534179687501	-265.5950317382813	1043.856323242188	-531.7033691406251	-287.1451416015626	978.657409667969	-497.908660888672	-366.9165649414063	1001.293090820313	-484.0992736816407	-428.3516845703126	796.8101806640627	-655.8390502929689	-376.9648132324219	753.0790405273439	-634.5471191406251	-408.3880615234376	788.684997558594	-721.4086914062501	-433.7815856933595	796.642517089844	-1012.185729980469	-413.4578552246095	808.7250976562502	-765.7969970703126	-565.8963623046876	906.4388427734377	-880.6893310546877	-592.9456176757814	882.9080200195315	-906.0377197265627	-585.4237670898439	882.946960449219	-848.7515258789065	-383.6019592285157	624.6644287109376	-1163.877563476563	-310.2261047363282	588.6358032226564	-1193.607055664063	-273.4739990234376	614.4271240234376	-1173.801879882813	-299.1588134765626	527.9782104492189	-1196.265869140625	-267.3101501464844	480.5501403808595	-1200.4501953125	-232.2140502929688	467.5448608398439	-1100.20458984375	-257.7321777343751	295.2916870117188	-1133.168334960938	-327.0670471191407	269.3186645507813	-1183.625122070313	-291.5690002441407	254.9002685546876	-1160.774291992188	-321.1270751953126	185.7240447998047	-1120.547607421875	-442.4092712402345	81.42015838623048	-1120.567749023438	-392.3683471679689	97.91651153564456	-1053.921997070313	-485.2461242675782	43.59434127807618	-1060.416748046875	-277.1362304687501	47.4618148803711	-1093.7509765625	-280.5032653808594	50.42986297607423	-1145.271484375	-328.7623901367188	30.05983352661134	-1184.475952148438	-394.4029846191407	627.3275756835939	-655.9201660156251	-334.5410156250001	606.0372314453126	-635.2709350585939	-307.4461364746094	628.0568847656251	-634.9785766601564	-305.8977966308594	524.5081176757814	-641.5725708007814	-226.0102844238282	443.563201904297	-631.9187622070314	-208.5810089111329	450.2621459960939	-739.6650390625001	-229.7504119873047	276.4796142578126	-674.9191284179689	-338.7539367675782	232.0616760253907	-659.2676391601564	-293.9881591796876	218.7339019775391	-667.2575073242189	-298.5716247558594	170.2908477783203	-702.0469360351564	-408.3002319335939	85.40055084228517	-696.4346923828126	-367.3096923828126	91.75472259521486	-771.344665527344	-463.2357788085939	40.32086944580079	-772.196960449219	-252.3785095214844	49.27400588989259	-713.4951782226564	-265.4441528320313	53.41502380371095	-668.9387817382814	-316.6504211425782	33.56947708129884	-633.9004516601564	-210.6745910644532	1180.32958984375	-922.4639282226565	
